<svg width="86" height="98" viewBox="0 0 86 98" fill="none" xmlns="http://www.w3.org/2000/svg">
<path d="M9.03552 74.4831L1.86886 70.6233C0.716885 70.0028 0 68.8098 0 67.513V22.7466C0 20.1394 2.75319 18.4257 5.13176 19.5523L43.1767 37.5721C44.1932 38.0534 45.3801 38.034 46.3802 37.5193L80.7615 19.8187C83.1469 18.5905 86 20.3014 86 22.9602V67.513C86 68.8098 85.283 70.0028 84.1313 70.6233L76.9646 74.4831C74.5767 75.7692 71.6667 74.0609 71.6667 71.3728V40.2814L46.3536 53.3693C45.3686 53.8786 44.2004 53.9073 43.191 53.4468L14.3333 40.2814V71.3728C14.3333 74.0609 11.4233 75.7692 9.03552 74.4831Z" fill="#32439E"/>
<path d="M41.1564 83.327L27.7968 75.4035C26.6026 74.6954 25.0833 75.5455 25.0833 76.9223V85.957C25.0833 87.2013 25.7437 88.3543 26.823 88.9943L41.1564 97.4952C42.2912 98.1682 43.7088 98.1682 44.8436 97.4952L59.1769 88.9943C60.2562 88.3543 60.9166 87.2013 60.9166 85.957V76.9223C60.9166 75.5455 59.3973 74.6954 58.2033 75.4035L44.8436 83.327C43.7088 84 42.2912 84 41.1564 83.327Z" fill="#32439E"/>
<path d="M41.1564 14.673L27.7968 22.5964C26.6026 23.3046 25.0833 22.4543 25.0833 21.0777V12.043C25.0833 10.7988 25.7437 9.64582 26.823 9.0057L41.1564 0.504769C42.2912 -0.168256 43.7088 -0.168256 44.8436 0.504769L59.1769 9.0057C60.2562 9.64582 60.9166 10.7988 60.9166 12.043V21.0777C60.9166 22.4543 59.3973 23.3046 58.2033 22.5964L44.8436 14.673C43.7088 14 42.2912 14 41.1564 14.673Z" fill="#32439E"/>
<path d="M25.0833 86.9598V76.9223C25.0833 75.5455 26.6026 74.6954 27.7968 75.4035L42.1299 83.9044C42.67 84.2246 43 84.8012 43 85.4232V96.7117C43 97.5377 42.0884 98.0482 41.3721 97.6231L25.9532 88.4786C25.4135 88.1584 25.0833 87.5817 25.0833 86.9598Z" fill="#0CB0E2"/>
<path d="M1.98082 71.2314L9.1475 74.7735C11.5301 75.9508 14.3333 74.2383 14.3333 71.6055V45.7265C14.3333 43.1302 17.0658 41.4158 19.4424 42.5217L42.2371 53.1248C43.4253 53.6777 44.7917 52.8205 44.7917 51.5224V40.6026C44.7917 39.2403 44.0012 37.9988 42.7588 37.4094L5.13395 19.5575C2.7552 18.4289 0 20.1426 0 22.7508V68.0634C0 69.4048 0.76684 70.6314 1.98082 71.2314Z" fill="#0CB0E2"/>
</svg>
